<mxfile host="65bd71144e">
    <diagram id="owlkWHPkQm0c59hob-cP" name="Page-1">
        <mxGraphModel dx="1444" dy="2222" grid="1" gridSize="10" guides="1" tooltips="1" connect="1" arrows="1" fold="1" page="1" pageScale="1" pageWidth="850" pageHeight="1100" math="0" shadow="0">
            <root>
                <mxCell id="0"/>
                <mxCell id="1" parent="0"/>
                <mxCell id="8" value="" style="edgeStyle=none;html=1;" parent="1" edge="1">
                    <mxGeometry relative="1" as="geometry">
                        <mxPoint x="760" y="570" as="targetPoint"/>
                    </mxGeometry>
                </mxCell>
                <mxCell id="12" value="" style="edgeStyle=none;html=1;" parent="1" edge="1">
                    <mxGeometry relative="1" as="geometry">
                        <mxPoint x="670" y="680" as="sourcePoint"/>
                    </mxGeometry>
                </mxCell>
                <mxCell id="21" value="" style="edgeStyle=none;html=1;fontSize=10;fontColor=#666666;strokeColor=#1f1f1f;" parent="1" source="15" target="20" edge="1">
                    <mxGeometry relative="1" as="geometry"/>
                </mxCell>
                <mxCell id="15" value="&lt;div style=&quot;font-family: &amp;#34;consolas&amp;#34; , &amp;#34;courier new&amp;#34; , monospace&quot;&gt;&lt;b style=&quot;font-size: x-small ; color: rgb(51 , 51 , 51)&quot;&gt;&amp;nbsp; input_crv(crv):&lt;/b&gt;&lt;br style=&quot;font-family: &amp;#34;helvetica&amp;#34;&quot;&gt;&lt;font color=&quot;#333333&quot;&gt;&amp;nbsp;&lt;/font&gt;&lt;font color=&quot;#666666&quot;&gt;&amp;nbsp;&lt;/font&gt;&lt;br style=&quot;font-family: &amp;#34;helvetica&amp;#34;&quot;&gt;&lt;font style=&quot;color: rgb(102 , 102 , 102)&quot;&gt;&amp;nbsp; &lt;font style=&quot;font-size: 8px&quot;&gt;crv projection rhino&lt;/font&gt;&lt;br&gt;&lt;/font&gt;&lt;/div&gt;" style="whiteSpace=wrap;html=1;fontSize=10;align=left;fillColor=none;strokeWidth=2;strokeColor=#454545;" parent="1" vertex="1">
                    <mxGeometry x="210" y="-520" width="330" height="120" as="geometry"/>
                </mxCell>
                <mxCell id="23" value="" style="edgeStyle=none;html=1;fontSize=10;fontColor=#666666;strokeColor=#1f1f1f;entryX=0;entryY=0.5;entryDx=0;entryDy=0;" parent="1" source="20" target="22" edge="1">
                    <mxGeometry relative="1" as="geometry">
                        <mxPoint x="1030" y="-470" as="targetPoint"/>
                    </mxGeometry>
                </mxCell>
                <mxCell id="20" value="&lt;b style=&quot;color: rgb(51 , 51 , 51) ; font-size: x-small ; font-family: &amp;#34;consolas&amp;#34; , &amp;#34;courier new&amp;#34; , monospace&quot;&gt;&amp;nbsp; def&amp;nbsp;divide_crv(crv):&lt;/b&gt;&lt;br&gt;&lt;font color=&quot;#333333&quot; style=&quot;font-family: &amp;#34;consolas&amp;#34; , &amp;#34;courier new&amp;#34; , monospace&quot;&gt;&amp;nbsp;&lt;/font&gt;&lt;font color=&quot;#666666&quot; style=&quot;font-family: &amp;#34;consolas&amp;#34; , &amp;#34;courier new&amp;#34; , monospace&quot;&gt;&amp;nbsp;&lt;/font&gt;&lt;br&gt;&lt;font style=&quot;font-size: 8px&quot;&gt;&lt;font style=&quot;font-family: &amp;#34;consolas&amp;#34; , &amp;#34;courier new&amp;#34; , monospace ; color: rgb(102 , 102 , 102) ; font-size: 8px&quot;&gt;&amp;nbsp; crv&amp;nbsp;=curve.ToNurbsCurve(curve.Domain)&lt;/font&gt;&lt;span style=&quot;font-family: &amp;#34;consolas&amp;#34; , &amp;#34;courier new&amp;#34; , monospace ; color: rgb(102 , 102 , 102)&quot;&gt;&amp;nbsp; &amp;nbsp;&amp;nbsp;&lt;/span&gt;&lt;span style=&quot;font-family: &amp;#34;consolas&amp;#34; , &amp;#34;courier new&amp;#34; , monospace ; color: rgb(102 , 102 , 102)&quot;&gt;params&lt;/span&gt;&lt;span style=&quot;font-family: &amp;#34;consolas&amp;#34; , &amp;#34;courier new&amp;#34; , monospace ; color: rgb(102 , 102 , 102)&quot;&gt;&amp;nbsp;=&amp;nbsp;&lt;/span&gt;&lt;span style=&quot;font-family: &amp;#34;consolas&amp;#34; , &amp;#34;courier new&amp;#34; , monospace ; color: rgb(102 , 102 , 102)&quot;&gt;crv&lt;/span&gt;&lt;span style=&quot;font-family: &amp;#34;consolas&amp;#34; , &amp;#34;courier new&amp;#34; , monospace ; color: rgb(102 , 102 , 102)&quot;&gt;.DivideByCount(divide_number,&amp;nbsp;&lt;/span&gt;&lt;span style=&quot;font-family: &amp;#34;consolas&amp;#34; , &amp;#34;courier new&amp;#34; , monospace ; color: rgb(102 , 102 , 102)&quot;&gt;True)&lt;/span&gt;&lt;br&gt;&lt;span style=&quot;color: rgb(102 , 102 , 102) ; font-family: &amp;#34;consolas&amp;#34; , &amp;#34;courier new&amp;#34; , monospace&quot;&gt;&amp;nbsp;&amp;nbsp;&lt;/span&gt;&lt;br&gt;&lt;/font&gt;&lt;div style=&quot;font-family: &amp;#34;consolas&amp;#34; , &amp;#34;courier new&amp;#34; , monospace ; font-size: 8px&quot;&gt;&lt;font style=&quot;font-size: 8px&quot; color=&quot;#666666&quot;&gt;&amp;nbsp; return&amp;nbsp;all_pts&lt;/font&gt;&lt;/div&gt;" style="whiteSpace=wrap;html=1;fontSize=10;align=left;fillColor=none;strokeWidth=2;strokeColor=#454545;" parent="1" vertex="1">
                    <mxGeometry x="613.33" y="-520" width="330" height="120" as="geometry"/>
                </mxCell>
                <mxCell id="22" value="&lt;div style=&quot;font-family: &amp;#34;consolas&amp;#34; , &amp;#34;courier new&amp;#34; , monospace ; font-size: 8px&quot;&gt;&lt;font color=&quot;#4d4d4d&quot; style=&quot;font-size: 8px&quot;&gt;&lt;b style=&quot;font-size: x-small&quot;&gt;&amp;nbsp; def make_planes(pts, srf):&lt;/b&gt;&lt;br style=&quot;font-family: &amp;#34;helvetica&amp;#34;&quot;&gt;&lt;span style=&quot;font-size: 8px&quot;&gt;&amp;nbsp;&amp;nbsp;&lt;/span&gt;&lt;br style=&quot;font-family: &amp;#34;helvetica&amp;#34;&quot;&gt;&lt;font style=&quot;font-size: 8px&quot;&gt;&lt;font style=&quot;font-size: 8px&quot;&gt;&amp;nbsp;&lt;/font&gt;&amp;nbsp; &amp;nbsp;uv_pt&amp;nbsp;=&amp;nbsp;ghc.components.SurfaceClosestPoint(pt, srf)&lt;/font&gt;&lt;/font&gt;&lt;/div&gt;&lt;div style=&quot;font-family: &amp;#34;consolas&amp;#34; , &amp;#34;courier new&amp;#34; , monospace ; font-size: 8px&quot;&gt;&lt;font color=&quot;#4d4d4d&quot; style=&quot;font-size: 8px&quot;&gt;&amp;nbsp; &amp;nbsp;&amp;nbsp;u,&amp;nbsp;v&amp;nbsp;=&amp;nbsp;ghc.components.EvaluateSurface(srf,&amp;nbsp;uv_pt)&lt;/font&gt;&lt;/div&gt;&lt;div style=&quot;font-family: &amp;#34;consolas&amp;#34; , &amp;#34;courier new&amp;#34; , monospace ; font-size: 8px&quot;&gt;&lt;font color=&quot;#4d4d4d&quot; style=&quot;font-size: 8px&quot;&gt;&amp;nbsp; &amp;nbsp; plane&amp;nbsp;=&amp;nbsp;rg.Plane(pt,&amp;nbsp;rg.Vector3d(u),&amp;nbsp;rg.Vector3d(v))&lt;/font&gt;&lt;/div&gt;&lt;div style=&quot;font-family: &amp;#34;consolas&amp;#34; , &amp;#34;courier new&amp;#34; , monospace ; font-size: 8px&quot;&gt;&lt;font color=&quot;#4d4d4d&quot; style=&quot;font-size: 8px&quot;&gt;&amp;nbsp;&amp;nbsp;&lt;/font&gt;&lt;/div&gt;&lt;div style=&quot;font-family: &amp;#34;consolas&amp;#34; , &amp;#34;courier new&amp;#34; , monospace ; font-size: 8px&quot;&gt;&lt;font color=&quot;#4d4d4d&quot; style=&quot;font-size: 8px&quot;&gt;&amp;nbsp; return all_plns&lt;/font&gt;&lt;/div&gt;" style="whiteSpace=wrap;html=1;fontSize=10;align=left;fillColor=none;strokeWidth=2;strokeColor=#454545;" parent="1" vertex="1">
                    <mxGeometry x="1030" y="-520" width="330" height="120" as="geometry"/>
                </mxCell>
                <mxCell id="30" value="" style="edgeStyle=none;html=1;fontSize=10;fontColor=#666666;strokeColor=#1f1f1f;" parent="1" source="31" target="33" edge="1">
                    <mxGeometry relative="1" as="geometry"/>
                </mxCell>
                <mxCell id="31" value="&lt;div style=&quot;font-family: &amp;#34;consolas&amp;#34; , &amp;#34;courier new&amp;#34; , monospace&quot;&gt;&lt;b style=&quot;font-size: x-small ; color: rgb(51 , 51 , 51)&quot;&gt;&amp;nbsp; def move_planes(plns, pt, max_layer_ht, min_layer_ht):&lt;/b&gt;&lt;/div&gt;&lt;div style=&quot;font-family: &amp;#34;consolas&amp;#34; , &amp;#34;courier new&amp;#34; , monospace&quot;&gt;&lt;b style=&quot;font-size: x-small ; color: rgb(51 , 51 , 51)&quot;&gt;&lt;br&gt;&lt;/b&gt;&lt;/div&gt;&lt;div style=&quot;font-family: &amp;#34;consolas&amp;#34; , &amp;#34;courier new&amp;#34; , monospace ; font-size: 8px&quot;&gt;&lt;div&gt;&lt;span style=&quot;color: rgb(212 , 212 , 212)&quot;&gt;&amp;nbsp;&amp;nbsp;&lt;/span&gt;&lt;span style=&quot;color: rgb(69 , 69 , 69)&quot;&gt;if&amp;nbsp;height_pt.DistanceTo(pln.Origin) &amp;lt;&amp;nbsp;min_dist:&lt;/span&gt;&lt;/div&gt;&lt;div&gt;&lt;font color=&quot;#454545&quot;&gt;&amp;nbsp; &amp;nbsp;&lt;span style=&quot;white-space: pre&quot;&gt;&#9;&lt;/span&gt;min_dist&amp;nbsp;=&amp;nbsp;height_pt.DistanceTo(pln.Origin)&lt;/font&gt;&lt;/div&gt;&lt;div&gt;&lt;font color=&quot;#454545&quot;&gt;&amp;nbsp; if&amp;nbsp;height_pt.DistanceTo(pln.Origin) &amp;gt;&amp;nbsp;max_dist:&lt;/font&gt;&lt;/div&gt;&lt;div&gt;&lt;font color=&quot;#454545&quot;&gt;&amp;nbsp; &amp;nbsp;&lt;span style=&quot;white-space: pre&quot;&gt;&#9;&lt;/span&gt;max_dist&amp;nbsp;=&amp;nbsp;height_pt.DistanceTo(pln.Origin)&lt;/font&gt;&lt;/div&gt;&lt;div&gt;&lt;font color=&quot;#454545&quot;&gt;&amp;nbsp; &amp;nbsp; &amp;nbsp; &amp;nbsp;&amp;nbsp;temp&amp;nbsp;=&amp;nbsp;Remap(height_pt.DistanceTo(pln.Origin),&amp;nbsp;max_dist,&amp;nbsp;min_dist,&amp;nbsp; &amp;nbsp; &amp;nbsp; &amp;nbsp; &amp;nbsp; &amp;nbsp;&#9;&lt;span style=&quot;white-space: pre&quot;&gt;&#9;&lt;/span&gt;min_layer_height,&amp;nbsp;max_layer_height)&lt;/font&gt;&lt;/div&gt;&lt;/div&gt;" style="whiteSpace=wrap;html=1;fontSize=10;align=left;fillColor=none;strokeWidth=2;strokeColor=#454545;" parent="1" vertex="1">
                    <mxGeometry x="203.33" y="-260" width="330" height="120" as="geometry"/>
                </mxCell>
                <mxCell id="32" value="" style="edgeStyle=none;html=1;fontSize=10;fontColor=#666666;strokeColor=#1f1f1f;entryX=0;entryY=0.5;entryDx=0;entryDy=0;" parent="1" source="33" target="34" edge="1">
                    <mxGeometry relative="1" as="geometry">
                        <mxPoint x="1023.33" y="-210" as="targetPoint"/>
                    </mxGeometry>
                </mxCell>
                <mxCell id="33" value="&lt;font color=&quot;#454545&quot;&gt;&lt;div style=&quot;font-family: &amp;#34;consolas&amp;#34; , &amp;#34;courier new&amp;#34; , monospace ; line-height: 19px&quot;&gt;&lt;div style=&quot;line-height: 19px&quot;&gt;&lt;b&gt;&lt;br&gt;&lt;/b&gt;&lt;/div&gt;&lt;div style=&quot;line-height: 19px&quot;&gt;&lt;b&gt;&amp;nbsp; for i in range(layer_number):&lt;/b&gt;&lt;/div&gt;&lt;/div&gt;&lt;/font&gt;&lt;span style=&quot;font-family: &amp;#34;consolas&amp;#34; , &amp;#34;courier new&amp;#34; , monospace ; color: rgb(69 , 69 , 69) ; font-size: 8px&quot;&gt;&lt;br&gt;&amp;nbsp; &amp;nbsp; for k, value in enumerate(heights):&lt;/span&gt;&lt;font style=&quot;font-size: 8px&quot;&gt;&lt;br&gt;&lt;span style=&quot;font-family: &amp;#34;consolas&amp;#34; , &amp;#34;courier new&amp;#34; , monospace ; color: rgb(69 , 69 , 69)&quot;&gt;&amp;nbsp; &amp;nbsp; &amp;nbsp; &amp;nbsp; &amp;nbsp; &amp;nbsp; origin = plns[k].Clone()&lt;/span&gt;&lt;br&gt;&lt;span style=&quot;font-family: &amp;#34;consolas&amp;#34; , &amp;#34;courier new&amp;#34; , monospace ; color: rgb(69 , 69 , 69)&quot;&gt;&amp;nbsp; &amp;nbsp; dir = rg.Vector3d(plns[k].Origin - dir_pt)&lt;/span&gt;&lt;br&gt;&lt;/font&gt;&lt;span style=&quot;font-family: &amp;#34;consolas&amp;#34; , &amp;#34;courier new&amp;#34; , monospace ; color: rgb(69 , 69 , 69) ; font-size: 8px&quot;&gt;&lt;br&gt;&amp;nbsp; &amp;nbsp; trans1 = rg.Transform.Translation(ratio * dir+ (1-ratio)&lt;br&gt;&amp;nbsp; &amp;nbsp; * xyz) * heights[k] * i * len(heights)&lt;br&gt;&lt;/span&gt;&lt;div style=&quot;font-family: &amp;#34;consolas&amp;#34; , &amp;#34;courier new&amp;#34; , monospace ; line-height: 19px&quot;&gt;&lt;div style=&quot;line-height: 19px&quot;&gt;&lt;br style=&quot;color: rgb(102 , 102 , 102) ; background-color: rgb(77 , 77 , 77)&quot;&gt;&lt;/div&gt;&lt;/div&gt;" style="whiteSpace=wrap;html=1;fontSize=10;align=left;fillColor=none;strokeWidth=2;strokeColor=#454545;" parent="1" vertex="1">
                    <mxGeometry x="606.66" y="-260" width="330" height="120" as="geometry"/>
                </mxCell>
                <mxCell id="34" value="&lt;div style=&quot;font-family: &amp;#34;consolas&amp;#34; , &amp;#34;courier new&amp;#34; , monospace&quot;&gt;&lt;font color=&quot;#4d4d4d&quot;&gt;&lt;b style=&quot;font-size: x-small&quot;&gt;&amp;nbsp; print_path_visulization(plns):&lt;/b&gt;&lt;br style=&quot;font-family: &amp;#34;helvetica&amp;#34;&quot;&gt;&amp;nbsp;&amp;nbsp;&lt;br style=&quot;font-family: &amp;#34;helvetica&amp;#34;&quot;&gt;&lt;font&gt;&amp;nbsp;&lt;/font&gt;&amp;nbsp; &amp;nbsp;for pln.Origin in plns:&lt;/font&gt;&lt;/div&gt;&lt;div style=&quot;font-family: &amp;#34;consolas&amp;#34; , &amp;#34;courier new&amp;#34; , monospace&quot;&gt;&lt;span style=&quot;color: rgb(77 , 77 , 77)&quot;&gt;&lt;span style=&quot;white-space: pre&quot;&gt;&#9;&lt;/span&gt;rg.Curve.CreateInterpolatedCurve&lt;/span&gt;&lt;/div&gt;&lt;div style=&quot;font-family: &amp;#34;consolas&amp;#34; , &amp;#34;courier new&amp;#34; , monospace&quot;&gt;&lt;span style=&quot;color: rgb(77 , 77 , 77)&quot;&gt;&amp;nbsp;&amp;nbsp;&lt;/span&gt;&lt;/div&gt;&lt;div style=&quot;font-family: &amp;#34;consolas&amp;#34; , &amp;#34;courier new&amp;#34; , monospace&quot;&gt;&lt;font color=&quot;#4d4d4d&quot;&gt;&amp;nbsp; return crv&lt;/font&gt;&lt;/div&gt;" style="whiteSpace=wrap;html=1;fontSize=10;align=left;fillColor=none;strokeWidth=2;strokeColor=#454545;" parent="1" vertex="1">
                    <mxGeometry x="1023.33" y="-260" width="330" height="120" as="geometry"/>
                </mxCell>
            </root>
        </mxGraphModel>
    </diagram>
</mxfile>